<?xml version="1.0" standalone="no"?>
<!DOCTYPE svg PUBLIC "-//W3C//DTD SVG 20010904//EN"
 "http://www.w3.org/TR/2001/REC-SVG-20010904/DTD/svg10.dtd">
<svg version="1.0" xmlns="http://www.w3.org/2000/svg"
 width="512.000000pt" height="512.000000pt" viewBox="0 0 512.000000 512.000000"
 preserveAspectRatio="xMidYMid meet">

<g transform="translate(0.000000,512.000000) scale(0.100000,-0.100000)"
fill="#000000" stroke="none">
<path d="M1903 4742 l-653 -377 0 -755 0 -755 655 -378 655 -378 655 378 655
378 0 755 0 755 -650 375 c-358 206 -654 376 -658 377 -4 1 -301 -168 -659
-375z m1197 -108 c292 -168 530 -309 530 -312 0 -4 -241 -146 -535 -315 l-534
-308 -535 308 c-295 169 -535 311 -536 315 0 3 60 40 133 82 72 42 310 179
527 305 217 126 401 230 408 230 7 1 251 -137 542 -305z m620 -1067 l0 -622
-402 -232 c-222 -128 -465 -268 -541 -312 l-137 -80 2 626 3 625 535 309 c294
170 536 309 537 309 2 0 3 -280 3 -623z m-1765 305 l520 -301 3 -621 c1 -342
-1 -619 -5 -617 -5 2 -245 141 -535 308 l-528 303 0 619 c0 491 3 618 13 614
6 -2 246 -140 532 -305z"/>
<path d="M480 3906 c-103 -23 -184 -78 -239 -164 -61 -95 -61 -99 -61 -834 l0
-668 75 0 75 0 0 668 c1 531 4 675 14 705 21 57 61 103 113 128 47 23 57 24
341 27 l292 4 0 74 0 74 -277 -1 c-180 0 -298 -5 -333 -13z"/>
<path d="M4030 3845 l0 -75 259 0 c142 0 282 -5 312 -10 70 -14 121 -49 156
-107 l28 -48 3 -257 3 -258 75 0 74 0 0 243 c0 187 -4 256 -15 302 -38 143
-150 247 -300 274 -33 6 -176 11 -327 11 l-268 0 0 -75z"/>
<path d="M580 2240 l0 -1280 1980 0 1980 0 0 1280 0 1280 -255 0 -255 0 0 -80
0 -80 180 0 180 0 0 -953 c0 -525 -3 -1029 -7 -1120 l-6 -167 -1817 0 -1817 0
-6 167 c-4 91 -7 595 -7 1120 l0 953 180 0 180 0 0 80 0 80 -255 0 -255 0 0
-1280z"/>
<path d="M4790 1825 l0 -1115 -800 0 -800 0 0 -54 c0 -92 43 -86 -630 -86
-673 0 -630 -6 -630 86 l0 54 -550 0 -550 0 0 -75 0 -75 479 0 c463 0 480 -1
486 -19 10 -31 90 -99 131 -110 54 -15 1214 -15 1268 0 41 11 121 79 131 110
6 18 28 19 827 19 l820 0 -4 -123 c-3 -100 -8 -129 -25 -162 -27 -51 -57 -79
-113 -104 -45 -20 -52 -21 -2270 -21 -2218 0 -2225 1 -2270 21 -56 25 -86 53
-113 104 -17 33 -22 62 -25 163 l-4 122 265 0 264 0 7 53 c3 28 6 62 6 75 l0
22 -180 0 -180 0 0 690 0 690 -75 0 -75 0 0 -690 0 -690 -91 0 -91 0 4 -213
c3 -206 4 -214 30 -269 37 -80 107 -152 187 -191 l66 -32 2275 0 2275 0 66 32
c80 39 150 111 187 191 26 55 27 63 30 269 l4 213 -91 0 -91 0 0 1115 0 1115
-75 0 -75 0 0 -1115z"/>
</g>
</svg>
